<?xml version="1.0" encoding="UTF-8" standalone="no"?>
<!-- Created with Inkscape (http://www.inkscape.org/) -->

<svg
   width="60.345001mm"
   height="60.345001mm"
   viewBox="0 0 60.345001 60.345001"
   version="1.1"
   id="svg5"
   xml:space="preserve"
   inkscape:version="1.2 (dc2aedaf03, 2022-05-15)"
   sodipodi:docname="logoV4.svg"
   xmlns:inkscape="http://www.inkscape.org/namespaces/inkscape"
   xmlns:sodipodi="http://sodipodi.sourceforge.net/DTD/sodipodi-0.dtd"
   xmlns:xlink="http://www.w3.org/1999/xlink"
   xmlns="http://www.w3.org/2000/svg"
   xmlns:svg="http://www.w3.org/2000/svg"><sodipodi:namedview
     id="namedview7"
     pagecolor="#ffffff"
     bordercolor="#666666"
     borderopacity="1.0"
     inkscape:showpageshadow="2"
     inkscape:pageopacity="0.0"
     inkscape:pagecheckerboard="0"
     inkscape:deskcolor="#d1d1d1"
     inkscape:document-units="mm"
     showgrid="false"
     inkscape:zoom="2.8284271"
     inkscape:cx="100.05561"
     inkscape:cy="108.18734"
     inkscape:window-width="1500"
     inkscape:window-height="921"
     inkscape:window-x="-7"
     inkscape:window-y="-7"
     inkscape:window-maximized="1"
     inkscape:current-layer="layer1"
     showguides="true"><sodipodi:guide
       position="510.71245,-160.85583"
       orientation="1,0"
       id="guide33911"
       inkscape:locked="false" /><sodipodi:guide
       position="782.27166,-49.49291"
       orientation="1,0"
       id="guide36873"
       inkscape:locked="false" /><sodipodi:guide
       position="783.49543,-59.877811"
       orientation="0,-1"
       id="guide42247"
       inkscape:locked="false" /><sodipodi:guide
       position="861.50369,-45.983408"
       orientation="1,0"
       id="guide42289"
       inkscape:locked="false" /></sodipodi:namedview><defs
     id="defs2"><inkscape:perspective
       sodipodi:type="inkscape:persp3d"
       inkscape:vp_x="0 : 10.667787 : 1"
       inkscape:vp_y="0 : 1000 : 0"
       inkscape:vp_z="99.354436 : 10.667787 : 1"
       inkscape:persp3d-origin="49.677218 : -5.8912856 : 1"
       id="perspective309" /><linearGradient
       inkscape:collect="always"
       id="linearGradient20959"><stop
         style="stop-color:#1475a7;stop-opacity:1;"
         offset="0"
         id="stop20955" /><stop
         style="stop-color:#2f95b9;stop-opacity:1;"
         offset="1"
         id="stop20957" /></linearGradient><linearGradient
       inkscape:collect="always"
       id="linearGradient18387"><stop
         style="stop-color:#1577a8;stop-opacity:1;"
         offset="0"
         id="stop18383" /><stop
         style="stop-color:#3197ba;stop-opacity:1;"
         offset="1"
         id="stop18385" /></linearGradient><linearGradient
       inkscape:collect="always"
       id="linearGradient17017"><stop
         style="stop-color:#1273a6;stop-opacity:1;"
         offset="0"
         id="stop17013" /><stop
         style="stop-color:#369dbd;stop-opacity:1;"
         offset="1"
         id="stop17015" /></linearGradient><linearGradient
       inkscape:collect="always"
       xlink:href="#linearGradient20959"
       id="linearGradient42273"
       gradientUnits="userSpaceOnUse"
       gradientTransform="matrix(1.2343349,0,0,1.2343349,235.05095,140.33513)"
       x1="155.67577"
       y1="258.91934"
       x2="162.93631"
       y2="258.91934" /><linearGradient
       inkscape:collect="always"
       xlink:href="#linearGradient17017"
       id="linearGradient42277"
       gradientUnits="userSpaceOnUse"
       gradientTransform="matrix(1,0,0,1.1491261,304.2153,167.22619)"
       x1="122.27411"
       y1="266.53763"
       x2="153.00974"
       y2="266.29343" /><linearGradient
       inkscape:collect="always"
       xlink:href="#linearGradient18387"
       id="linearGradient42279"
       gradientUnits="userSpaceOnUse"
       gradientTransform="translate(-530.37315,131.08048)"
       x1="138.72626"
       y1="238.68668"
       x2="148.17422"
       y2="238.68668" /></defs><g
     inkscape:label="Layer 1"
     inkscape:groupmode="layer"
     id="layer1"
     transform="translate(410.43293,-356.62251)"><g
       id="g85509"
       transform="translate(7.0296426,-4.5853378)"
       inkscape:label="الشعار"><g
         id="g42287"
         transform="translate(-837.74724,-88.483779)"
         inkscape:label="ميزان"><path
           id="path42259"
           style="fill:#212e3e;fill-opacity:1;fill-rule:evenodd;stroke:none;stroke-width:0.764999;stroke-linecap:round;stroke-linejoin:round;stroke-dasharray:none;stroke-opacity:1;paint-order:stroke markers fill"
           d="m 465.18722,472.72765 a 4.497058,4.497058 0 0 0 4.48055,4.11882 4.497058,4.497058 0 0 0 4.48102,-4.11882 z" /><rect
           style="fill:#212e3e;fill-opacity:1;fill-rule:evenodd;stroke:none;stroke-width:0.764999;stroke-linecap:round;stroke-linejoin:round;stroke-dasharray:none;stroke-opacity:1;paint-order:stroke markers fill"
           id="rect42261"
           width="0.58840013"
           height="13.953489"
           x="469.37384"
           y="462.55685"
           ry="0.29420006" /><path
           style="color:#000000;fill:#212e3e;fill-opacity:1;stroke-width:0.264583px"
           d="m 469.67408,462.69409 -4.32896,10.46934"
           id="path42263" /><path
           style="color:#000000;fill:#212e3e;fill-opacity:1;stroke-width:1"
           d="m 469.56381,462.64884 -4.32794,10.46881 0.21939,0.0913 4.32793,-10.46879 z"
           id="path42265" /><path
           style="color:#000000;fill:#212e3e;fill-opacity:1;stroke-width:0.264583px"
           d="m 469.63205,462.69409 4.32894,10.46934"
           id="path42267" /><path
           style="color:#000000;fill:#212e3e;fill-opacity:1;stroke-width:1"
           d="m 469.74105,462.64884 -0.21936,0.0913 4.32968,10.46879 0.21938,-0.0913 z"
           id="path42269" /></g><circle
         style="fill:url(#linearGradient42279);fill-opacity:1;fill-rule:evenodd;stroke:none;stroke-width:1.765;stroke-linecap:round;stroke-linejoin:round;stroke-dasharray:none;stroke-opacity:1;paint-order:stroke markers fill"
         id="circle42251"
         cx="-386.92291"
         cy="369.76715"
         r="4.723989"
         inkscape:label="رأس" /><path
         id="path42271"
         style="fill:url(#linearGradient42273);fill-opacity:1;fill-rule:nonzero;stroke:none;stroke-width:0.764999;stroke-linecap:round;stroke-linejoin:round;stroke-dasharray:none;stroke-opacity:1;paint-order:stroke markers fill"
         d="m 431.68793,452.78329 c -0.16297,0 -0.29405,0.13172 -0.29405,0.29471 v 0.25705 l -3.97707,9.61894 h -0.20984 a 4.497058,4.497058 0 0 0 0.0509,0.38398 l -0.002,0.006 0.004,0.002 a 4.497058,4.497058 0 0 0 4.42803,3.72703 4.497058,4.497058 0 0 0 4.48097,-4.11931 h -0.23984 l -3.94708,-9.54367 v -0.33231 c 0,-0.16299 -0.13105,-0.2947 -0.29405,-0.2947 z m -0.29405,1.17368 v 8.99702 h -3.72001 z m 0.58811,0.0739 3.69001,8.92304 h -3.69001 z"
         transform="translate(-838.02789,-78.710121)"
         inkscape:label="ميزان" /><g
         id="g85617"><path
           id="path42249"
           style="color:#000000;fill:#212e3e;stroke-linecap:round"
           d="m 470.3162,449.36485 c -0.78726,-0.0168 -1.59544,0.0936 -2.3983,0.28887 -1.8351,0.44638 -3.7486,1.35556 -5.71334,2.60914 -3.90732,2.49301 -8.00966,6.37695 -11.36779,11.05979 1.02722,0.8568 1.92867,2.1925 2.44998,3.05304 0.18577,-0.26435 0.37124,-0.52692 0.55656,-0.78651 3.09052,-4.32895 6.9577,-7.96435 10.38696,-10.15235 1.71463,-1.094 3.3225,-1.81954 4.57802,-2.12494 1.25551,-0.3054 2.05074,-0.17092 2.43757,0.0625 0.88994,0.53697 2.04652,0.25101 2.58383,-0.63872 0.53696,-0.88994 0.251,-2.04703 -0.63873,-2.58434 -0.78629,-0.47453 -1.64659,-0.70982 -2.53886,-0.77153 -0.11153,-0.008 -0.22343,-0.0126 -0.3359,-0.015 z m -21.62038,17.24029 c -2.33035,3.94409 -4.04233,8.30657 -4.55735,12.81989 -0.6589,5.77437 0.74508,11.82238 5.2617,17.02531 0.68144,0.78423 1.86918,0.86824 2.6541,0.18759 0.78423,-0.68144 -0.58698,-1.47231 -1.26762,-2.25723 -3.84193,-4.42573 -4.39348,-9.61222 -3.83233,-14.52986 0.38248,-3.35187 2.00911,-6.74876 3.98426,-9.94306 z"
           transform="translate(-838.02789,-78.710121)"
           inkscape:label="يد يمين" /><path
           id="path42253"
           style="color:#000000;fill:url(#linearGradient42277);stroke-linecap:round"
           d="m 432.06118,449.3633 c -0.16943,-2.3e-4 -0.33758,0.005 -0.50488,0.0165 -0.89228,0.0617 -1.75102,0.297 -2.53732,0.77153 -0.88973,0.53731 -1.17569,1.6944 -0.63872,2.58434 0.53731,0.88973 1.69389,1.17569 2.58382,0.63872 0.38683,-0.23345 1.18206,-0.36793 2.43758,-0.0625 1.25552,0.3054 2.86339,1.03094 4.57802,2.12494 3.42925,2.188 7.29439,5.8234 10.38489,10.15235 3.09052,4.32895 6.79292,9.41018 7.35408,14.32781 0.54907,4.81177 -0.94157,10.06794 -4.59869,14.4327 0.48285,0.29065 0.94006,0.65207 1.49846,1.47875 3.95375,-5.00383 6.0746,-10.94298 5.4515,-16.40341 -0.65892,-5.77437 -3.27228,-11.30477 -6.64093,-16.02331 -3.36867,-4.71856 -7.4941,-8.63169 -11.4236,-11.13886 -1.96475,-1.25358 -3.87773,-2.16276 -5.71283,-2.60914 -0.74551,-0.18134 -1.49722,-0.28943 -2.23138,-0.29042 z"
           sodipodi:nodetypes="ssccsssssccsssss"
           transform="translate(-838.02789,-78.710121)"
           inkscape:label="يد يسار" /></g></g></g></svg>
